<svg width="34" height="33" viewBox="0 0 34 33" fill="none" xmlns="http://www.w3.org/2000/svg">
<g clip-path="url(#clip0_1_1452)">
<path d="M31.1924 18.5379L8.8662 11.5085C9.3688 7.63556 9.95218 6.46869 11.7087 6.51696C11.7087 6.51696 11.077 3.79269 9.27938 2.22678C6.24589 7.03316 5.47243 12.1576 5.47243 12.1576L8.73483 15.63L8.73526 15.6231L4.69463 18.1478C4.69463 18.1478 4.135 23.2995 5.84078 28.7209C7.97833 27.6671 9.28463 25.1929 9.28463 25.1929C7.57412 24.7903 7.30766 23.515 7.8042 19.6675L31.1924 18.5379ZM4.02873 15.0142C4.53353 10.8764 5.81871 6.23145 8.55864 1.66177C7.47763 0.862982 6.98397 0.63027 6.98397 0.63027C4.20178 5.65307 2.84157 10.5185 2.26941 14.7859C1.73329 19.0589 1.80657 24.1104 3.21464 29.6765C3.21464 29.6765 3.8798 29.5225 5.00044 29.0811C3.51757 23.9639 3.46049 19.1452 4.02873 15.0142Z" fill="white"/>
</g>
<defs>
<clipPath id="clip0_1_1452">
<rect width="29.1653" height="29.1653" fill="white" transform="translate(0.392868 29.2477) rotate(-82.606)"/>
</clipPath>
</defs>
</svg>
