<svg width="26" height="27" viewBox="0 0 26 27" fill="none" xmlns="http://www.w3.org/2000/svg">
<g clip-path="url(#clip0_1_1437)">
<path d="M13.6376 25.7897C18.0469 25.5345 21.9686 22.9018 23.8758 18.9184C25.7829 14.9351 25.3734 10.2292 22.8073 6.6345C23.9676 10.0008 22.9129 13.7334 20.1619 15.9941C16.6478 18.9107 11.3053 19.2547 4.07385 22.0111C6.54384 24.6267 10.0469 26.0107 13.6372 25.7898L13.6376 25.7897Z" fill="#004B93"/>
<path d="M19.5092 3.47643C17.1509 1.9417 14.3331 1.27305 11.5367 1.58462C8.74024 1.89618 6.13866 3.16865 4.17598 5.18481C2.21353 7.20121 1.01175 9.83622 0.7758 12.64C0.53985 15.4439 1.28435 18.2427 2.88222 20.5587C11.1015 17.7803 17.5315 11.8165 19.5096 3.47641L19.5092 3.47643Z" fill="#C9002B"/>
</g>
<defs>
<clipPath id="clip0_1_1437">
<rect width="24.3305" height="24.3305" fill="white" transform="translate(0.0205307 2.25201) rotate(-3.46058)"/>
</clipPath>
</defs>
</svg>
