<svg width="35" height="36" viewBox="0 0 35 36" fill="none" xmlns="http://www.w3.org/2000/svg">
<g clip-path="url(#clip0_1_1461)">
<path fill-rule="evenodd" clip-rule="evenodd" d="M32.0503 22.667L31.4486 21.6175L30.5447 20.1348L30.5112 20.1087C27.7754 15.6853 24.9322 11.3291 21.9843 7.04415L21.8662 6.87151L20.9506 5.4864C20.5722 4.92 20.1302 4.39886 19.6331 3.93321C19.0896 3.39955 18.4316 2.99684 17.7091 2.75569C16.9866 2.51454 16.2186 2.4413 15.4635 2.54154C14.7124 2.63754 13.9913 2.89615 13.3504 3.29936C12.7095 3.70256 12.1642 4.24066 11.7525 4.87615C11.396 5.45576 11.0957 6.06806 10.8555 6.70473L10.2249 8.4392C8.41861 13.3539 6.70161 18.3122 5.15134 23.1951L5.12896 23.2584C5.00741 23.7872 4.82772 24.3348 4.64639 24.9203C4.53365 25.2768 4.42485 25.6649 4.32005 26.0853C4.05935 27.1944 4.0745 28.3505 4.36415 29.4524C4.66979 30.5571 5.25797 31.5631 6.07073 32.3714C6.88348 33.1796 7.89279 33.7622 8.9992 34.0617C9.82979 34.2953 10.6992 34.3578 11.5547 34.2453C11.8208 34.2075 12.0846 34.1545 12.3446 34.0866C13.4132 33.8131 14.4155 33.3268 15.2916 32.6567C16.6205 31.6224 17.7743 30.381 18.7089 28.9801C19.964 30.1018 21.3855 31.0219 22.9227 31.7077C23.9362 32.143 25.0271 32.369 26.1301 32.3723C26.3987 32.3745 26.6677 32.361 26.9349 32.3327C27.7925 32.2348 28.6204 31.9611 29.3675 31.5287C30.3669 30.9673 31.2028 30.1553 31.7928 29.1726C32.3829 28.1899 32.7067 27.0705 32.7325 25.9245C32.8223 24.7952 32.5831 23.664 32.0436 22.6679L32.0503 22.667ZM18.3794 25.9929C16.4582 24.1041 15.1366 22.2743 14.5604 20.6534C14.3332 20.0587 14.2225 19.4271 14.2321 18.7903C14.2354 18.3192 14.35 17.8557 14.5646 17.4319C14.8193 16.9653 15.1835 16.5674 15.6258 16.2723C16.0681 15.9773 16.5754 15.794 17.1041 15.7381C18.1731 15.5632 19.2577 15.9454 19.9805 16.7526C20.2927 17.1055 20.5169 17.5272 20.635 17.9834C20.801 18.5977 20.8478 19.2381 20.773 19.87C20.6069 21.5467 19.7761 23.6207 18.3781 25.9823L18.3794 25.9929ZM30.8377 25.907C30.7968 27.5398 29.909 29.0302 28.4784 29.8271C27.7813 30.2298 26.9924 30.4465 26.1875 30.4564C25.3484 30.4571 24.5183 30.2847 23.7489 29.9499C22.329 29.3169 21.0203 28.4593 19.8732 27.41C21.5925 24.6636 22.5475 22.242 22.7533 20.1433C22.8468 19.2606 22.789 18.3684 22.5823 17.5051C22.3743 16.7666 21.9998 16.0849 21.4883 15.5134C20.322 14.2234 18.5901 13.5978 16.8688 13.8455C15.1502 14.0368 13.6327 15.0528 12.8013 16.5693C12.4454 17.2492 12.2491 18.0009 12.2284 18.7683C12.2071 19.6588 12.3707 20.544 12.7088 21.368C13.4252 23.3398 14.9743 25.4925 17.2847 27.7378C16.4372 29.0421 15.3774 30.1953 14.1491 31.1496C13.4865 31.6717 12.7227 32.0507 11.9061 32.2626C11.1237 32.4491 10.3077 32.4428 9.52829 32.2442C7.95098 31.8262 6.71564 30.6004 6.28086 29.0262C6.08341 28.2338 6.07776 27.4058 6.26438 26.6108C6.32102 26.2896 6.43433 25.9848 6.54097 25.5793C6.69381 25.0589 6.87836 24.5032 7.05835 23.954L7.08073 23.8908C8.63596 19.0438 10.3277 14.0824 12.1351 9.22748L12.1971 8.99636L12.7587 7.48754C12.9375 6.96924 13.1783 6.47447 13.4759 6.01399C13.7351 5.61992 14.0767 5.28683 14.4773 5.03774C14.8778 4.78865 15.3276 4.6295 15.7957 4.57129C16.2638 4.51308 16.7389 4.55721 17.1882 4.70061C17.6375 4.84402 18.0504 5.08328 18.3982 5.40187C18.7825 5.77579 19.1207 6.1944 19.4054 6.64877L20.3195 7.97408L20.4318 8.14743C23.3418 12.4454 26.2084 16.8337 28.8985 21.1595L28.9022 21.1893C29.2077 21.6528 29.4965 22.1788 29.8019 22.6383C30.0025 22.988 30.1957 23.2786 30.3227 23.5706C30.6736 24.3049 30.8483 25.111 30.833 25.9247L30.8377 25.907Z" fill="white"/>
</g>
<defs>
<clipPath id="clip0_1_1461">
<rect width="30.98" height="30.98" fill="white" transform="translate(0.0787659 4.45474) rotate(-7.0888)"/>
</clipPath>
</defs>
</svg>
