<svg width="28" height="28" viewBox="0 0 28 28" fill="none" xmlns="http://www.w3.org/2000/svg">
<g id="spotify logo" clip-path="url(#clip0_1_1342)">
<path id="Vector" d="M13.874 0C6.21156 0 -6.10352e-05 6.21162 -6.10352e-05 13.8741C-6.10352e-05 21.5365 6.21156 27.7481 13.874 27.7481C21.5365 27.7481 27.7481 21.5365 27.7481 13.8741C27.7481 6.21162 21.5365 0 13.874 0ZM19.9122 20.1351C19.7358 20.4369 19.4183 20.6052 19.0922 20.6053C18.9296 20.6053 18.7649 20.5634 18.6144 20.4755C16.1212 19.0185 13.2409 18.7843 11.2632 18.8444C9.07253 18.9111 7.46598 19.3435 7.45002 19.3479C6.94502 19.4859 6.42315 19.1887 6.28462 18.6838C6.14616 18.1789 6.44229 17.6574 6.94703 17.5183C7.01944 17.4984 8.74823 17.0288 11.1523 16.9495C12.5683 16.9028 13.9316 17.0015 15.2036 17.2428C16.8147 17.5484 18.2843 18.0849 19.5717 18.8373C20.0242 19.1016 20.1765 19.6828 19.9122 20.1351ZM21.676 16.4717C21.4671 16.8293 21.091 17.0286 20.7047 17.0287C20.5121 17.0287 20.317 16.9792 20.1387 16.875C17.1855 15.1491 13.7737 14.8718 11.4312 14.943C8.83615 15.0219 6.93315 15.5342 6.91426 15.5394C6.31622 15.7026 5.69793 15.3508 5.53384 14.7527C5.36981 14.1546 5.72064 13.5369 6.31849 13.3722C6.40427 13.3486 8.45203 12.7923 11.2997 12.6984C12.9772 12.6431 14.5919 12.76 16.0986 13.0458C18.007 13.4079 19.7478 14.0433 21.2728 14.9345C21.8087 15.2476 21.9892 15.9359 21.676 16.4717ZM22.7603 13.1409C22.5241 13.1409 22.2848 13.0801 22.066 12.9523C15.045 8.84912 5.93749 11.2885 5.84632 11.3136C5.11228 11.5159 4.35345 11.0848 4.15127 10.3508C3.94903 9.61684 4.38012 8.85795 5.1141 8.65577C5.21928 8.62676 7.7311 7.9445 11.224 7.82933C13.2817 7.76159 15.2623 7.90486 17.1104 8.25543C19.4512 8.6995 21.5866 9.4789 23.4571 10.5721C24.1144 10.9562 24.3358 11.8004 23.9517 12.4577C23.6954 12.8963 23.2342 13.1409 22.7603 13.1409Z" fill="white"/>
</g>
<defs>
<clipPath id="clip0_1_1342">
<rect width="27.7481" height="27.7481" fill="white"/>
</clipPath>
</defs>
</svg>
